<?xml version="1.0" encoding="utf-8"?>
<!-- Generator: Adobe Illustrator 21.1.0, SVG Export Plug-In . SVG Version: 6.00 Build 0)  -->
<svg version="1.1" id="レイヤー_1" xmlns="http://www.w3.org/2000/svg" xmlns:xlink="http://www.w3.org/1999/xlink" x="0px"
	 y="0px" width="16px" height="22px" viewBox="0 0 16 22" enable-background="new 0 0 16 22" xml:space="preserve">
<g transform="translate(24,335)">
	<g>
		<g>
			<g>
				<g>
					<g>
						<g>
							<g>
								<defs>
									<path id="SVGID_7_" d="M-14-335h-8.5c-0.8,0-1.5,0.7-1.5,1.5v19c0,0.8,0.7,1.5,1.5,1.5h13c0.8,0,1.5-0.7,1.5-1.5V-329
										L-14-335z"/>
								</defs>
								<clipPath id="SVGID_1_">
									<use xlink:href="#SVGID_7_"  overflow="visible"/>
								</clipPath>
								<path clip-path="url(#SVGID_1_)" fill="#1A9756" d="M-14-335h-8.5c-0.8,0-1.5,0.7-1.5,1.5v19c0,0.8,0.7,1.5,1.5,1.5h13
									c0.8,0,1.5-0.7,1.5-1.5V-329l-3.5-2.5L-14-335z"/>
							</g>
						</g>
					</g>
				</g>
			</g>
			<g>
				<g>
					<g>
						<g>
							<g>
								<defs>
									<path id="SVGID_9_" d="M-14-335h-8.5c-0.8,0-1.5,0.7-1.5,1.5v19c0,0.8,0.7,1.5,1.5,1.5h13c0.8,0,1.5-0.7,1.5-1.5V-329
										L-14-335z"/>
								</defs>
								<clipPath id="SVGID_2_">
									<use xlink:href="#SVGID_9_"  overflow="visible"/>
								</clipPath>
								<path clip-path="url(#SVGID_2_)" fill="#F1F1F1" d="M-20-324.2v7.2h8v-7.2H-20z M-16.5-318H-19v-1.2h2.5V-318z M-16.5-320
									H-19v-1.2h2.5V-320z M-16.5-322H-19v-1.2h2.5V-322z M-13-318h-2.5v-1.2h2.5V-318z M-13-320h-2.5v-1.2h2.5V-320z M-13-322
									h-2.5v-1.2h2.5V-322z"/>
							</g>
						</g>
					</g>
				</g>
			</g>
			<g>
				<g>
					<g>
						<g>
							<g>
								<defs>
									<path id="SVGID_11_" d="M-14-335h-8.5c-0.8,0-1.5,0.7-1.5,1.5v19c0,0.8,0.7,1.5,1.5,1.5h13c0.8,0,1.5-0.7,1.5-1.5V-329
										L-14-335z"/>
								</defs>
								<clipPath id="SVGID_3_">
									<use xlink:href="#SVGID_11_"  overflow="visible"/>
								</clipPath>
								<g clip-path="url(#SVGID_3_)">
									<g>
										<path fill="#84C7A7" d="M-14-335v4.5c0,0.8,0.7,1.5,1.5,1.5H-8L-14-335z"/>
									</g>
								</g>
							</g>
						</g>
					</g>
				</g>
			</g>
		</g>
	</g>
</g>
</svg>
